<?xml version="1.0" encoding="UTF-8" standalone="no"?>
<!-- Created with Inkscape (http://www.inkscape.org/) -->

<svg
   xmlns:dc="http://purl.org/dc/elements/1.1/"
   xmlns:cc="http://creativecommons.org/ns#"
   xmlns:rdf="http://www.w3.org/1999/02/22-rdf-syntax-ns#"
   xmlns:svg="http://www.w3.org/2000/svg"
   xmlns="http://www.w3.org/2000/svg"
   xmlns:sodipodi="http://sodipodi.sourceforge.net/DTD/sodipodi-0.dtd"
   xmlns:inkscape="http://www.inkscape.org/namespaces/inkscape"
   width="761.94336"
   height="896.25"
   id="svg2"
   version="1.1"
   inkscape:version="0.48.4 r9939"
   sodipodi:docname="america_futebol_clube-crest-004.svg">
  <defs
     id="defs4" />
  <sodipodi:namedview
     id="base"
     pagecolor="#ffffff"
     bordercolor="#666666"
     borderopacity="1.0"
     inkscape:pageopacity="0.0"
     inkscape:pageshadow="2"
     inkscape:zoom="0.5"
     inkscape:cx="527.83201"
     inkscape:cy="549.04112"
     inkscape:document-units="px"
     inkscape:current-layer="layer1"
     showgrid="true"
     showguides="false"
     fit-margin-top="0"
     fit-margin-left="0"
     fit-margin-right="0"
     fit-margin-bottom="0"
     inkscape:window-width="1920"
     inkscape:window-height="1120"
     inkscape:window-x="-4"
     inkscape:window-y="-4"
     inkscape:window-maximized="1"
     inkscape:guide-bbox="true">
    <inkscape:grid
       type="xygrid"
       id="grid3076"
       empspacing="5"
       visible="true"
       enabled="true"
       snapvisiblegridlinesonly="true"
       originx="-14.100693px"
       originy="-15.206742px" />
  </sodipodi:namedview>
  <metadata
     id="metadata7">
    <rdf:RDF>
      <cc:Work
         rdf:about="">
        <dc:format>image/svg+xml</dc:format>
        <dc:type
           rdf:resource="http://purl.org/dc/dcmitype/StillImage" />
        <dc:title />
      </cc:Work>
    </rdf:RDF>
  </metadata>
  <g
     inkscape:label="Layer 1"
     inkscape:groupmode="layer"
     id="layer1"
     transform="translate(-14.100693,-140.90625)">
    <path
       style="color:#000000;fill:#ffffff;fill-opacity:1;fill-rule:nonzero;stroke:#007f4e;stroke-width:28;stroke-opacity:1;marker:none;visibility:visible;display:inline;overflow:visible;enable-background:accumulate"
       d="M 395,158.36297 C 277.14093,246.32079 133.60173,236.91003 35.416021,198.65912 20,362.36212 -10,752.36212 395.08839,1020.3621 800.68245,752.52118 770,362.36212 754.75977,198.65942 656.58087,236.90768 512.83852,246.32324 395,158.36297 z"
       id="path3074"
       inkscape:connector-curvature="0"
       sodipodi:nodetypes="cccccc" />
    <path
       style="color:#000000;fill:#007f4e;fill-opacity:1;fill-rule:nonzero;stroke:none;stroke-width:2.85714293;marker:none;visibility:visible;display:inline;overflow:visible;enable-background:accumulate"
       d="M 373.88008,782.94585 C 349.39854,782.02072 302.54525,770.90103 273.6459,748.89957 l 0,23.23306 c 0,29.09882 -37.11651,29.09882 -37.11651,0 l 0,-47.31094 C 117.52391,578.68479 187.77293,394.66834 373.88008,363.98723 l 0,-45.81854 -104.83906,0 c -28.98349,0 -28.98349,-35.5219 0,-35.5219 l 254.84423,0 c 28.98349,0 28.98349,35.5219 0,35.5219 l -109.0613,0 0,45.81854 C 464.00823,365.64794 535,402.36299 572,449.36299 c 18,23 -12,43 -27.07532,25.40327 C 495,422.36299 460.39754,406.98892 414.82395,400.16293 l 0,56.53456 66.29728,0 c 15.7825,32.61451 25.79523,65.0201 36.0474,99.26096 l 21.72577,0 c 29.87728,0 29.2783,41.75155 -0.0939,41.75155 l -12.13698,0 c 5.33936,24.85259 9.54528,49.88147 13.50828,74.9773 C 543.44168,669.0811 552,658.36299 555,654.36299 c 15,-15 43,5 30,24 -15,19 -24.53428,31.02083 -40.99227,48.9587 l 0.14286,44.81094 c 0.0905,28.38295 -33.77282,29.04683 -36.93183,0 l -1.92857,-17.73306 c -25.74971,16.2721 -50.74646,26.73938 -90.46624,32.04628 l 0,85.97705 c 0,29.88606 -40.94387,29.88595 -40.94387,-10e-5 z m 0,-103.19875 -94.5029,0 -2.93413,31.37015 c 0.19601,14.35577 82.6542,37.76636 97.43703,35.97356 z m 132.90905,28.37015 -3.80535,-28.37015 -88.15983,0 0,67.34371 c 0,7.96909 67.87668,-10.46744 91.96518,-38.97356 z m -208.79565,-251.41976 75.8866,0 0,-56.53456 C 198.35327,439.81844 190.57764,584.20047 245.45861,679.7471 c 6.40253,-77.84393 24.74206,-152.14555 52.53487,-223.04961 z m 75.8866,35.2267 c -15.7487,-0.5538 -39.08152,0.5538 -54.83022,0 -17.49373,50.2816 -26.90623,100.05815 -35.30858,151.34991 30.16533,0 59.97347,0 90.1388,0 z m 114.9232,105.78581 -73.97933,0 0,45.5641 c 25.97653,0 56.9552,0 82.93173,0 z m -6.41309,-41.75155 -18.92164,-64.03426 c -12.85713,-0.5633 -35.78747,0.5631 -48.6446,0 l 0,64.03426 z"
       id="path3050"
       inkscape:connector-curvature="0"
       sodipodi:nodetypes="ccsscccssssccccccccsscccccssccsscccccccccsccccccccccccccccccccc" />
  </g>
</svg>
